M48
; DRILL file {KiCad (7.0.0)} date Tue Feb 28 17:37:00 2023
; FORMAT={-:-/ absolute / inch / decimal}
; #@! TF.CreationDate,2023-02-28T17:37:00-07:00
; #@! TF.GenerationSoftware,Kicad,Pcbnew,(7.0.0)
; #@! TF.FileFunction,Plated,1,2,PTH
FMAT,2
INCH
; #@! TA.AperFunction,Plated,PTH,ViaDrill
T1C0.0157
%
G90
G05
T1
X4.3307Y-2.0472
X4.3307Y-2.8937
X4.3307Y-3.7992
X4.3307Y-4.7047
X4.3701Y-5.7874
X5.0787Y-2.7953
X5.0787Y-3.7008
X5.0787Y-4.6063
X5.0787Y-5.5118
X5.1772Y-2.0472
X5.6299Y-2.815
X5.6299Y-3.7205
X5.6299Y-4.626
X5.6299Y-5.5315
X6.0827Y-2.0472
X6.1811Y-2.7953
X6.1811Y-3.7008
X6.1811Y-4.6063
X6.1811Y-5.5118
X6.8898Y-5.7874
X6.9291Y-2.0472
X6.9291Y-2.8937
X6.9291Y-3.7992
X6.9291Y-4.7047
T0
M30
