%TF.GenerationSoftware,KiCad,Pcbnew,(7.0.0)*%
%TF.CreationDate,2023-02-28T17:37:01-07:00*%
%TF.ProjectId,keypad,6b657970-6164-42e6-9b69-6361645f7063,rev?*%
%TF.SameCoordinates,Original*%
%TF.FileFunction,Drillmap*%
%TF.FilePolarity,Positive*%
%FSLAX45Y45*%
G04 Gerber Fmt 4.5, Leading zero omitted, Abs format (unit mm)*
G04 Created by KiCad (PCBNEW (7.0.0)) date 2023-02-28 17:37:01*
%MOMM*%
%LPD*%
G01*
G04 APERTURE LIST*
%ADD10C,0.100000*%
%ADD11C,0.200000*%
%ADD12C,0.040000*%
G04 APERTURE END LIST*
D10*
X17800000Y-5400000D02*
G75*
G03*
X17400000Y-5000000I-400000J0D01*
G01*
X11200000Y-5000000D02*
G75*
G03*
X10800000Y-5400000I0J-400000D01*
G01*
X17400000Y-15000000D02*
X11200000Y-15000000D01*
X17800000Y-5400000D02*
X17800000Y-14600000D01*
X11200000Y-5000000D02*
X17400000Y-5000000D01*
X17400000Y-15000000D02*
G75*
G03*
X17800000Y-14600000I0J400000D01*
G01*
X10800000Y-14600000D02*
G75*
G03*
X11200000Y-15000000I400000J0D01*
G01*
X10800000Y-14600000D02*
X10800000Y-5400000D01*
D11*
D12*
X10980000Y-5180000D02*
X11020000Y-5220000D01*
X11020000Y-5180000D02*
X10980000Y-5220000D01*
X10980000Y-7330000D02*
X11020000Y-7370000D01*
X11020000Y-7330000D02*
X10980000Y-7370000D01*
X10980000Y-9630000D02*
X11020000Y-9670000D01*
X11020000Y-9630000D02*
X10980000Y-9670000D01*
X10980000Y-11930000D02*
X11020000Y-11970000D01*
X11020000Y-11930000D02*
X10980000Y-11970000D01*
X11080000Y-14680000D02*
X11120000Y-14720000D01*
X11120000Y-14680000D02*
X11080000Y-14720000D01*
X12880000Y-7080000D02*
X12920000Y-7120000D01*
X12920000Y-7080000D02*
X12880000Y-7120000D01*
X12880000Y-9380000D02*
X12920000Y-9420000D01*
X12920000Y-9380000D02*
X12880000Y-9420000D01*
X12880000Y-11680000D02*
X12920000Y-11720000D01*
X12920000Y-11680000D02*
X12880000Y-11720000D01*
X12880000Y-13980000D02*
X12920000Y-14020000D01*
X12920000Y-13980000D02*
X12880000Y-14020000D01*
X13130000Y-5180000D02*
X13170000Y-5220000D01*
X13170000Y-5180000D02*
X13130000Y-5220000D01*
X14280000Y-7130000D02*
X14320000Y-7170000D01*
X14320000Y-7130000D02*
X14280000Y-7170000D01*
X14280000Y-9430000D02*
X14320000Y-9470000D01*
X14320000Y-9430000D02*
X14280000Y-9470000D01*
X14280000Y-11730000D02*
X14320000Y-11770000D01*
X14320000Y-11730000D02*
X14280000Y-11770000D01*
X14280000Y-14030000D02*
X14320000Y-14070000D01*
X14320000Y-14030000D02*
X14280000Y-14070000D01*
X15430000Y-5180000D02*
X15470000Y-5220000D01*
X15470000Y-5180000D02*
X15430000Y-5220000D01*
X15680000Y-7080000D02*
X15720000Y-7120000D01*
X15720000Y-7080000D02*
X15680000Y-7120000D01*
X15680000Y-9380000D02*
X15720000Y-9420000D01*
X15720000Y-9380000D02*
X15680000Y-9420000D01*
X15680000Y-11680000D02*
X15720000Y-11720000D01*
X15720000Y-11680000D02*
X15680000Y-11720000D01*
X15680000Y-13980000D02*
X15720000Y-14020000D01*
X15720000Y-13980000D02*
X15680000Y-14020000D01*
X17480000Y-14680000D02*
X17520000Y-14720000D01*
X17520000Y-14680000D02*
X17480000Y-14720000D01*
X17580000Y-5180000D02*
X17620000Y-5220000D01*
X17620000Y-5180000D02*
X17580000Y-5220000D01*
X17580000Y-7330000D02*
X17620000Y-7370000D01*
X17620000Y-7330000D02*
X17580000Y-7370000D01*
X17580000Y-9630000D02*
X17620000Y-9670000D01*
X17620000Y-9630000D02*
X17580000Y-9670000D01*
X17580000Y-11930000D02*
X17620000Y-11970000D01*
X17620000Y-11930000D02*
X17580000Y-11970000D01*
D11*
X11042619Y-15298476D02*
X11042619Y-15098476D01*
X11042619Y-15098476D02*
X11090238Y-15098476D01*
X11090238Y-15098476D02*
X11118810Y-15108000D01*
X11118810Y-15108000D02*
X11137857Y-15127048D01*
X11137857Y-15127048D02*
X11147381Y-15146095D01*
X11147381Y-15146095D02*
X11156905Y-15184190D01*
X11156905Y-15184190D02*
X11156905Y-15212762D01*
X11156905Y-15212762D02*
X11147381Y-15250857D01*
X11147381Y-15250857D02*
X11137857Y-15269905D01*
X11137857Y-15269905D02*
X11118810Y-15288952D01*
X11118810Y-15288952D02*
X11090238Y-15298476D01*
X11090238Y-15298476D02*
X11042619Y-15298476D01*
X11242619Y-15298476D02*
X11242619Y-15165143D01*
X11242619Y-15203238D02*
X11252143Y-15184190D01*
X11252143Y-15184190D02*
X11261667Y-15174667D01*
X11261667Y-15174667D02*
X11280714Y-15165143D01*
X11280714Y-15165143D02*
X11299762Y-15165143D01*
X11366428Y-15298476D02*
X11366428Y-15165143D01*
X11366428Y-15098476D02*
X11356905Y-15108000D01*
X11356905Y-15108000D02*
X11366428Y-15117524D01*
X11366428Y-15117524D02*
X11375952Y-15108000D01*
X11375952Y-15108000D02*
X11366428Y-15098476D01*
X11366428Y-15098476D02*
X11366428Y-15117524D01*
X11490238Y-15298476D02*
X11471190Y-15288952D01*
X11471190Y-15288952D02*
X11461667Y-15269905D01*
X11461667Y-15269905D02*
X11461667Y-15098476D01*
X11595000Y-15298476D02*
X11575952Y-15288952D01*
X11575952Y-15288952D02*
X11566428Y-15269905D01*
X11566428Y-15269905D02*
X11566428Y-15098476D01*
X11791190Y-15298476D02*
X11791190Y-15098476D01*
X11791190Y-15098476D02*
X11857857Y-15241333D01*
X11857857Y-15241333D02*
X11924524Y-15098476D01*
X11924524Y-15098476D02*
X11924524Y-15298476D01*
X12105476Y-15298476D02*
X12105476Y-15193714D01*
X12105476Y-15193714D02*
X12095952Y-15174667D01*
X12095952Y-15174667D02*
X12076905Y-15165143D01*
X12076905Y-15165143D02*
X12038809Y-15165143D01*
X12038809Y-15165143D02*
X12019762Y-15174667D01*
X12105476Y-15288952D02*
X12086428Y-15298476D01*
X12086428Y-15298476D02*
X12038809Y-15298476D01*
X12038809Y-15298476D02*
X12019762Y-15288952D01*
X12019762Y-15288952D02*
X12010238Y-15269905D01*
X12010238Y-15269905D02*
X12010238Y-15250857D01*
X12010238Y-15250857D02*
X12019762Y-15231809D01*
X12019762Y-15231809D02*
X12038809Y-15222286D01*
X12038809Y-15222286D02*
X12086428Y-15222286D01*
X12086428Y-15222286D02*
X12105476Y-15212762D01*
X12200714Y-15165143D02*
X12200714Y-15365143D01*
X12200714Y-15174667D02*
X12219762Y-15165143D01*
X12219762Y-15165143D02*
X12257857Y-15165143D01*
X12257857Y-15165143D02*
X12276905Y-15174667D01*
X12276905Y-15174667D02*
X12286428Y-15184190D01*
X12286428Y-15184190D02*
X12295952Y-15203238D01*
X12295952Y-15203238D02*
X12295952Y-15260381D01*
X12295952Y-15260381D02*
X12286428Y-15279428D01*
X12286428Y-15279428D02*
X12276905Y-15288952D01*
X12276905Y-15288952D02*
X12257857Y-15298476D01*
X12257857Y-15298476D02*
X12219762Y-15298476D01*
X12219762Y-15298476D02*
X12200714Y-15288952D01*
X12381667Y-15279428D02*
X12391190Y-15288952D01*
X12391190Y-15288952D02*
X12381667Y-15298476D01*
X12381667Y-15298476D02*
X12372143Y-15288952D01*
X12372143Y-15288952D02*
X12381667Y-15279428D01*
X12381667Y-15279428D02*
X12381667Y-15298476D01*
X12381667Y-15174667D02*
X12391190Y-15184190D01*
X12391190Y-15184190D02*
X12381667Y-15193714D01*
X12381667Y-15193714D02*
X12372143Y-15184190D01*
X12372143Y-15184190D02*
X12381667Y-15174667D01*
X12381667Y-15174667D02*
X12381667Y-15193714D01*
D12*
X10755000Y-15625000D02*
X10795000Y-15665000D01*
X10795000Y-15625000D02*
X10755000Y-15665000D01*
D11*
X11080714Y-15518476D02*
X11099762Y-15518476D01*
X11099762Y-15518476D02*
X11118810Y-15528000D01*
X11118810Y-15528000D02*
X11128333Y-15537524D01*
X11128333Y-15537524D02*
X11137857Y-15556571D01*
X11137857Y-15556571D02*
X11147381Y-15594667D01*
X11147381Y-15594667D02*
X11147381Y-15642286D01*
X11147381Y-15642286D02*
X11137857Y-15680381D01*
X11137857Y-15680381D02*
X11128333Y-15699428D01*
X11128333Y-15699428D02*
X11118810Y-15708952D01*
X11118810Y-15708952D02*
X11099762Y-15718476D01*
X11099762Y-15718476D02*
X11080714Y-15718476D01*
X11080714Y-15718476D02*
X11061667Y-15708952D01*
X11061667Y-15708952D02*
X11052143Y-15699428D01*
X11052143Y-15699428D02*
X11042619Y-15680381D01*
X11042619Y-15680381D02*
X11033095Y-15642286D01*
X11033095Y-15642286D02*
X11033095Y-15594667D01*
X11033095Y-15594667D02*
X11042619Y-15556571D01*
X11042619Y-15556571D02*
X11052143Y-15537524D01*
X11052143Y-15537524D02*
X11061667Y-15528000D01*
X11061667Y-15528000D02*
X11080714Y-15518476D01*
X11233095Y-15699428D02*
X11242619Y-15708952D01*
X11242619Y-15708952D02*
X11233095Y-15718476D01*
X11233095Y-15718476D02*
X11223571Y-15708952D01*
X11223571Y-15708952D02*
X11233095Y-15699428D01*
X11233095Y-15699428D02*
X11233095Y-15718476D01*
X11414048Y-15585143D02*
X11414048Y-15718476D01*
X11366428Y-15508952D02*
X11318809Y-15651809D01*
X11318809Y-15651809D02*
X11442619Y-15651809D01*
X11556905Y-15518476D02*
X11575952Y-15518476D01*
X11575952Y-15518476D02*
X11595000Y-15528000D01*
X11595000Y-15528000D02*
X11604524Y-15537524D01*
X11604524Y-15537524D02*
X11614048Y-15556571D01*
X11614048Y-15556571D02*
X11623571Y-15594667D01*
X11623571Y-15594667D02*
X11623571Y-15642286D01*
X11623571Y-15642286D02*
X11614048Y-15680381D01*
X11614048Y-15680381D02*
X11604524Y-15699428D01*
X11604524Y-15699428D02*
X11595000Y-15708952D01*
X11595000Y-15708952D02*
X11575952Y-15718476D01*
X11575952Y-15718476D02*
X11556905Y-15718476D01*
X11556905Y-15718476D02*
X11537857Y-15708952D01*
X11537857Y-15708952D02*
X11528333Y-15699428D01*
X11528333Y-15699428D02*
X11518809Y-15680381D01*
X11518809Y-15680381D02*
X11509286Y-15642286D01*
X11509286Y-15642286D02*
X11509286Y-15594667D01*
X11509286Y-15594667D02*
X11518809Y-15556571D01*
X11518809Y-15556571D02*
X11528333Y-15537524D01*
X11528333Y-15537524D02*
X11537857Y-15528000D01*
X11537857Y-15528000D02*
X11556905Y-15518476D01*
X11747381Y-15518476D02*
X11766429Y-15518476D01*
X11766429Y-15518476D02*
X11785476Y-15528000D01*
X11785476Y-15528000D02*
X11795000Y-15537524D01*
X11795000Y-15537524D02*
X11804524Y-15556571D01*
X11804524Y-15556571D02*
X11814048Y-15594667D01*
X11814048Y-15594667D02*
X11814048Y-15642286D01*
X11814048Y-15642286D02*
X11804524Y-15680381D01*
X11804524Y-15680381D02*
X11795000Y-15699428D01*
X11795000Y-15699428D02*
X11785476Y-15708952D01*
X11785476Y-15708952D02*
X11766429Y-15718476D01*
X11766429Y-15718476D02*
X11747381Y-15718476D01*
X11747381Y-15718476D02*
X11728333Y-15708952D01*
X11728333Y-15708952D02*
X11718809Y-15699428D01*
X11718809Y-15699428D02*
X11709286Y-15680381D01*
X11709286Y-15680381D02*
X11699762Y-15642286D01*
X11699762Y-15642286D02*
X11699762Y-15594667D01*
X11699762Y-15594667D02*
X11709286Y-15556571D01*
X11709286Y-15556571D02*
X11718809Y-15537524D01*
X11718809Y-15537524D02*
X11728333Y-15528000D01*
X11728333Y-15528000D02*
X11747381Y-15518476D01*
X11899762Y-15718476D02*
X11899762Y-15585143D01*
X11899762Y-15604190D02*
X11909286Y-15594667D01*
X11909286Y-15594667D02*
X11928333Y-15585143D01*
X11928333Y-15585143D02*
X11956905Y-15585143D01*
X11956905Y-15585143D02*
X11975952Y-15594667D01*
X11975952Y-15594667D02*
X11985476Y-15613714D01*
X11985476Y-15613714D02*
X11985476Y-15718476D01*
X11985476Y-15613714D02*
X11995000Y-15594667D01*
X11995000Y-15594667D02*
X12014048Y-15585143D01*
X12014048Y-15585143D02*
X12042619Y-15585143D01*
X12042619Y-15585143D02*
X12061667Y-15594667D01*
X12061667Y-15594667D02*
X12071190Y-15613714D01*
X12071190Y-15613714D02*
X12071190Y-15718476D01*
X12166429Y-15718476D02*
X12166429Y-15585143D01*
X12166429Y-15604190D02*
X12175952Y-15594667D01*
X12175952Y-15594667D02*
X12195000Y-15585143D01*
X12195000Y-15585143D02*
X12223571Y-15585143D01*
X12223571Y-15585143D02*
X12242619Y-15594667D01*
X12242619Y-15594667D02*
X12252143Y-15613714D01*
X12252143Y-15613714D02*
X12252143Y-15718476D01*
X12252143Y-15613714D02*
X12261667Y-15594667D01*
X12261667Y-15594667D02*
X12280714Y-15585143D01*
X12280714Y-15585143D02*
X12309286Y-15585143D01*
X12309286Y-15585143D02*
X12328333Y-15594667D01*
X12328333Y-15594667D02*
X12337857Y-15613714D01*
X12337857Y-15613714D02*
X12337857Y-15718476D01*
X12695952Y-15508952D02*
X12524524Y-15766095D01*
X12920714Y-15518476D02*
X12939762Y-15518476D01*
X12939762Y-15518476D02*
X12958810Y-15528000D01*
X12958810Y-15528000D02*
X12968333Y-15537524D01*
X12968333Y-15537524D02*
X12977857Y-15556571D01*
X12977857Y-15556571D02*
X12987381Y-15594667D01*
X12987381Y-15594667D02*
X12987381Y-15642286D01*
X12987381Y-15642286D02*
X12977857Y-15680381D01*
X12977857Y-15680381D02*
X12968333Y-15699428D01*
X12968333Y-15699428D02*
X12958810Y-15708952D01*
X12958810Y-15708952D02*
X12939762Y-15718476D01*
X12939762Y-15718476D02*
X12920714Y-15718476D01*
X12920714Y-15718476D02*
X12901667Y-15708952D01*
X12901667Y-15708952D02*
X12892143Y-15699428D01*
X12892143Y-15699428D02*
X12882619Y-15680381D01*
X12882619Y-15680381D02*
X12873095Y-15642286D01*
X12873095Y-15642286D02*
X12873095Y-15594667D01*
X12873095Y-15594667D02*
X12882619Y-15556571D01*
X12882619Y-15556571D02*
X12892143Y-15537524D01*
X12892143Y-15537524D02*
X12901667Y-15528000D01*
X12901667Y-15528000D02*
X12920714Y-15518476D01*
X13073095Y-15699428D02*
X13082619Y-15708952D01*
X13082619Y-15708952D02*
X13073095Y-15718476D01*
X13073095Y-15718476D02*
X13063571Y-15708952D01*
X13063571Y-15708952D02*
X13073095Y-15699428D01*
X13073095Y-15699428D02*
X13073095Y-15718476D01*
X13206429Y-15518476D02*
X13225476Y-15518476D01*
X13225476Y-15518476D02*
X13244524Y-15528000D01*
X13244524Y-15528000D02*
X13254048Y-15537524D01*
X13254048Y-15537524D02*
X13263571Y-15556571D01*
X13263571Y-15556571D02*
X13273095Y-15594667D01*
X13273095Y-15594667D02*
X13273095Y-15642286D01*
X13273095Y-15642286D02*
X13263571Y-15680381D01*
X13263571Y-15680381D02*
X13254048Y-15699428D01*
X13254048Y-15699428D02*
X13244524Y-15708952D01*
X13244524Y-15708952D02*
X13225476Y-15718476D01*
X13225476Y-15718476D02*
X13206429Y-15718476D01*
X13206429Y-15718476D02*
X13187381Y-15708952D01*
X13187381Y-15708952D02*
X13177857Y-15699428D01*
X13177857Y-15699428D02*
X13168333Y-15680381D01*
X13168333Y-15680381D02*
X13158810Y-15642286D01*
X13158810Y-15642286D02*
X13158810Y-15594667D01*
X13158810Y-15594667D02*
X13168333Y-15556571D01*
X13168333Y-15556571D02*
X13177857Y-15537524D01*
X13177857Y-15537524D02*
X13187381Y-15528000D01*
X13187381Y-15528000D02*
X13206429Y-15518476D01*
X13463571Y-15718476D02*
X13349286Y-15718476D01*
X13406429Y-15718476D02*
X13406429Y-15518476D01*
X13406429Y-15518476D02*
X13387381Y-15547048D01*
X13387381Y-15547048D02*
X13368333Y-15566095D01*
X13368333Y-15566095D02*
X13349286Y-15575619D01*
X13644524Y-15518476D02*
X13549286Y-15518476D01*
X13549286Y-15518476D02*
X13539762Y-15613714D01*
X13539762Y-15613714D02*
X13549286Y-15604190D01*
X13549286Y-15604190D02*
X13568333Y-15594667D01*
X13568333Y-15594667D02*
X13615952Y-15594667D01*
X13615952Y-15594667D02*
X13635000Y-15604190D01*
X13635000Y-15604190D02*
X13644524Y-15613714D01*
X13644524Y-15613714D02*
X13654048Y-15632762D01*
X13654048Y-15632762D02*
X13654048Y-15680381D01*
X13654048Y-15680381D02*
X13644524Y-15699428D01*
X13644524Y-15699428D02*
X13635000Y-15708952D01*
X13635000Y-15708952D02*
X13615952Y-15718476D01*
X13615952Y-15718476D02*
X13568333Y-15718476D01*
X13568333Y-15718476D02*
X13549286Y-15708952D01*
X13549286Y-15708952D02*
X13539762Y-15699428D01*
X13720714Y-15518476D02*
X13854048Y-15518476D01*
X13854048Y-15518476D02*
X13768333Y-15718476D01*
X13920714Y-15518476D02*
X13920714Y-15556571D01*
X13996905Y-15518476D02*
X13996905Y-15556571D01*
X14259762Y-15794667D02*
X14250238Y-15785143D01*
X14250238Y-15785143D02*
X14231191Y-15756571D01*
X14231191Y-15756571D02*
X14221667Y-15737524D01*
X14221667Y-15737524D02*
X14212143Y-15708952D01*
X14212143Y-15708952D02*
X14202619Y-15661333D01*
X14202619Y-15661333D02*
X14202619Y-15623238D01*
X14202619Y-15623238D02*
X14212143Y-15575619D01*
X14212143Y-15575619D02*
X14221667Y-15547048D01*
X14221667Y-15547048D02*
X14231191Y-15528000D01*
X14231191Y-15528000D02*
X14250238Y-15499428D01*
X14250238Y-15499428D02*
X14259762Y-15489905D01*
X14326429Y-15537524D02*
X14335952Y-15528000D01*
X14335952Y-15528000D02*
X14355000Y-15518476D01*
X14355000Y-15518476D02*
X14402619Y-15518476D01*
X14402619Y-15518476D02*
X14421667Y-15528000D01*
X14421667Y-15528000D02*
X14431191Y-15537524D01*
X14431191Y-15537524D02*
X14440714Y-15556571D01*
X14440714Y-15556571D02*
X14440714Y-15575619D01*
X14440714Y-15575619D02*
X14431191Y-15604190D01*
X14431191Y-15604190D02*
X14316905Y-15718476D01*
X14316905Y-15718476D02*
X14440714Y-15718476D01*
X14612143Y-15585143D02*
X14612143Y-15718476D01*
X14564524Y-15508952D02*
X14516905Y-15651809D01*
X14516905Y-15651809D02*
X14640714Y-15651809D01*
X14836905Y-15718476D02*
X14836905Y-15518476D01*
X14922619Y-15718476D02*
X14922619Y-15613714D01*
X14922619Y-15613714D02*
X14913095Y-15594667D01*
X14913095Y-15594667D02*
X14894048Y-15585143D01*
X14894048Y-15585143D02*
X14865476Y-15585143D01*
X14865476Y-15585143D02*
X14846429Y-15594667D01*
X14846429Y-15594667D02*
X14836905Y-15604190D01*
X15046429Y-15718476D02*
X15027381Y-15708952D01*
X15027381Y-15708952D02*
X15017857Y-15699428D01*
X15017857Y-15699428D02*
X15008333Y-15680381D01*
X15008333Y-15680381D02*
X15008333Y-15623238D01*
X15008333Y-15623238D02*
X15017857Y-15604190D01*
X15017857Y-15604190D02*
X15027381Y-15594667D01*
X15027381Y-15594667D02*
X15046429Y-15585143D01*
X15046429Y-15585143D02*
X15075000Y-15585143D01*
X15075000Y-15585143D02*
X15094048Y-15594667D01*
X15094048Y-15594667D02*
X15103572Y-15604190D01*
X15103572Y-15604190D02*
X15113095Y-15623238D01*
X15113095Y-15623238D02*
X15113095Y-15680381D01*
X15113095Y-15680381D02*
X15103572Y-15699428D01*
X15103572Y-15699428D02*
X15094048Y-15708952D01*
X15094048Y-15708952D02*
X15075000Y-15718476D01*
X15075000Y-15718476D02*
X15046429Y-15718476D01*
X15227381Y-15718476D02*
X15208333Y-15708952D01*
X15208333Y-15708952D02*
X15198810Y-15689905D01*
X15198810Y-15689905D02*
X15198810Y-15518476D01*
X15379762Y-15708952D02*
X15360714Y-15718476D01*
X15360714Y-15718476D02*
X15322619Y-15718476D01*
X15322619Y-15718476D02*
X15303572Y-15708952D01*
X15303572Y-15708952D02*
X15294048Y-15689905D01*
X15294048Y-15689905D02*
X15294048Y-15613714D01*
X15294048Y-15613714D02*
X15303572Y-15594667D01*
X15303572Y-15594667D02*
X15322619Y-15585143D01*
X15322619Y-15585143D02*
X15360714Y-15585143D01*
X15360714Y-15585143D02*
X15379762Y-15594667D01*
X15379762Y-15594667D02*
X15389286Y-15613714D01*
X15389286Y-15613714D02*
X15389286Y-15632762D01*
X15389286Y-15632762D02*
X15294048Y-15651809D01*
X15465476Y-15708952D02*
X15484524Y-15718476D01*
X15484524Y-15718476D02*
X15522619Y-15718476D01*
X15522619Y-15718476D02*
X15541667Y-15708952D01*
X15541667Y-15708952D02*
X15551191Y-15689905D01*
X15551191Y-15689905D02*
X15551191Y-15680381D01*
X15551191Y-15680381D02*
X15541667Y-15661333D01*
X15541667Y-15661333D02*
X15522619Y-15651809D01*
X15522619Y-15651809D02*
X15494048Y-15651809D01*
X15494048Y-15651809D02*
X15475000Y-15642286D01*
X15475000Y-15642286D02*
X15465476Y-15623238D01*
X15465476Y-15623238D02*
X15465476Y-15613714D01*
X15465476Y-15613714D02*
X15475000Y-15594667D01*
X15475000Y-15594667D02*
X15494048Y-15585143D01*
X15494048Y-15585143D02*
X15522619Y-15585143D01*
X15522619Y-15585143D02*
X15541667Y-15594667D01*
X15617857Y-15794667D02*
X15627381Y-15785143D01*
X15627381Y-15785143D02*
X15646429Y-15756571D01*
X15646429Y-15756571D02*
X15655953Y-15737524D01*
X15655953Y-15737524D02*
X15665476Y-15708952D01*
X15665476Y-15708952D02*
X15675000Y-15661333D01*
X15675000Y-15661333D02*
X15675000Y-15623238D01*
X15675000Y-15623238D02*
X15665476Y-15575619D01*
X15665476Y-15575619D02*
X15655953Y-15547048D01*
X15655953Y-15547048D02*
X15646429Y-15528000D01*
X15646429Y-15528000D02*
X15627381Y-15499428D01*
X15627381Y-15499428D02*
X15617857Y-15489905D01*
M02*
