%TF.GenerationSoftware,KiCad,Pcbnew,(7.0.0)*%
%TF.CreationDate,2023-02-28T17:37:01-07:00*%
%TF.ProjectId,keypad,6b657970-6164-42e6-9b69-6361645f7063,rev?*%
%TF.SameCoordinates,Original*%
%TF.FileFunction,Drillmap*%
%TF.FilePolarity,Positive*%
%FSLAX45Y45*%
G04 Gerber Fmt 4.5, Leading zero omitted, Abs format (unit mm)*
G04 Created by KiCad (PCBNEW (7.0.0)) date 2023-02-28 17:37:01*
%MOMM*%
%LPD*%
G01*
G04 APERTURE LIST*
%ADD10C,0.100000*%
%ADD11C,0.200000*%
G04 APERTURE END LIST*
D10*
X17800000Y-5400000D02*
G75*
G03*
X17400000Y-5000000I-400000J0D01*
G01*
X11200000Y-5000000D02*
G75*
G03*
X10800000Y-5400000I0J-400000D01*
G01*
X17400000Y-15000000D02*
X11200000Y-15000000D01*
X17800000Y-5400000D02*
X17800000Y-14600000D01*
X11200000Y-5000000D02*
X17400000Y-5000000D01*
X17400000Y-15000000D02*
G75*
G03*
X17800000Y-14600000I0J400000D01*
G01*
X10800000Y-14600000D02*
G75*
G03*
X11200000Y-15000000I400000J0D01*
G01*
X10800000Y-14600000D02*
X10800000Y-5400000D01*
D11*
X11042619Y-15298476D02*
X11042619Y-15098476D01*
X11042619Y-15098476D02*
X11090238Y-15098476D01*
X11090238Y-15098476D02*
X11118810Y-15108000D01*
X11118810Y-15108000D02*
X11137857Y-15127048D01*
X11137857Y-15127048D02*
X11147381Y-15146095D01*
X11147381Y-15146095D02*
X11156905Y-15184190D01*
X11156905Y-15184190D02*
X11156905Y-15212762D01*
X11156905Y-15212762D02*
X11147381Y-15250857D01*
X11147381Y-15250857D02*
X11137857Y-15269905D01*
X11137857Y-15269905D02*
X11118810Y-15288952D01*
X11118810Y-15288952D02*
X11090238Y-15298476D01*
X11090238Y-15298476D02*
X11042619Y-15298476D01*
X11242619Y-15298476D02*
X11242619Y-15165143D01*
X11242619Y-15203238D02*
X11252143Y-15184190D01*
X11252143Y-15184190D02*
X11261667Y-15174667D01*
X11261667Y-15174667D02*
X11280714Y-15165143D01*
X11280714Y-15165143D02*
X11299762Y-15165143D01*
X11366428Y-15298476D02*
X11366428Y-15165143D01*
X11366428Y-15098476D02*
X11356905Y-15108000D01*
X11356905Y-15108000D02*
X11366428Y-15117524D01*
X11366428Y-15117524D02*
X11375952Y-15108000D01*
X11375952Y-15108000D02*
X11366428Y-15098476D01*
X11366428Y-15098476D02*
X11366428Y-15117524D01*
X11490238Y-15298476D02*
X11471190Y-15288952D01*
X11471190Y-15288952D02*
X11461667Y-15269905D01*
X11461667Y-15269905D02*
X11461667Y-15098476D01*
X11595000Y-15298476D02*
X11575952Y-15288952D01*
X11575952Y-15288952D02*
X11566428Y-15269905D01*
X11566428Y-15269905D02*
X11566428Y-15098476D01*
X11791190Y-15298476D02*
X11791190Y-15098476D01*
X11791190Y-15098476D02*
X11857857Y-15241333D01*
X11857857Y-15241333D02*
X11924524Y-15098476D01*
X11924524Y-15098476D02*
X11924524Y-15298476D01*
X12105476Y-15298476D02*
X12105476Y-15193714D01*
X12105476Y-15193714D02*
X12095952Y-15174667D01*
X12095952Y-15174667D02*
X12076905Y-15165143D01*
X12076905Y-15165143D02*
X12038809Y-15165143D01*
X12038809Y-15165143D02*
X12019762Y-15174667D01*
X12105476Y-15288952D02*
X12086428Y-15298476D01*
X12086428Y-15298476D02*
X12038809Y-15298476D01*
X12038809Y-15298476D02*
X12019762Y-15288952D01*
X12019762Y-15288952D02*
X12010238Y-15269905D01*
X12010238Y-15269905D02*
X12010238Y-15250857D01*
X12010238Y-15250857D02*
X12019762Y-15231809D01*
X12019762Y-15231809D02*
X12038809Y-15222286D01*
X12038809Y-15222286D02*
X12086428Y-15222286D01*
X12086428Y-15222286D02*
X12105476Y-15212762D01*
X12200714Y-15165143D02*
X12200714Y-15365143D01*
X12200714Y-15174667D02*
X12219762Y-15165143D01*
X12219762Y-15165143D02*
X12257857Y-15165143D01*
X12257857Y-15165143D02*
X12276905Y-15174667D01*
X12276905Y-15174667D02*
X12286428Y-15184190D01*
X12286428Y-15184190D02*
X12295952Y-15203238D01*
X12295952Y-15203238D02*
X12295952Y-15260381D01*
X12295952Y-15260381D02*
X12286428Y-15279428D01*
X12286428Y-15279428D02*
X12276905Y-15288952D01*
X12276905Y-15288952D02*
X12257857Y-15298476D01*
X12257857Y-15298476D02*
X12219762Y-15298476D01*
X12219762Y-15298476D02*
X12200714Y-15288952D01*
X12381667Y-15279428D02*
X12391190Y-15288952D01*
X12391190Y-15288952D02*
X12381667Y-15298476D01*
X12381667Y-15298476D02*
X12372143Y-15288952D01*
X12372143Y-15288952D02*
X12381667Y-15279428D01*
X12381667Y-15279428D02*
X12381667Y-15298476D01*
X12381667Y-15174667D02*
X12391190Y-15184190D01*
X12391190Y-15184190D02*
X12381667Y-15193714D01*
X12381667Y-15193714D02*
X12372143Y-15184190D01*
X12372143Y-15184190D02*
X12381667Y-15174667D01*
X12381667Y-15174667D02*
X12381667Y-15193714D01*
M02*
